# xmcd
#
# Track frame offsets: 
#        150
#        1811
#        18687
#        37196
#        39345
#        58754
#        77078
#        83014
#        106265
#        110162
#        128555
#        148160
#        154441
#        173026
#        189708
#        206724
#        210908
#        229931
#        243815
#        262319
#        264379
#        278978
#        294939
#        296431
#
# Disc length: 4180 seconds
#
# Revision: 0
# Processed by: cddbd v1.4PL0 Copyright (c) Steve Scherf et al.
# Submitted via: ExactAudioCopy v0.90a11
#
DISCID=60105218
DTITLE=Negakuss - Neuer Kurs
DYEAR=1900
DGENRE=
TTITLE0=Das Geständnis
TTITLE1=123 Show
TTITLE2=Hamburger Bubass
TTITLE3=Biss`n Freestyle
TTITLE4=Hip Hoppa
TTITLE5=Aufstehen
TTITLE6=Das Gebet
TTITLE7=Das leben ist nicht leicht
TTITLE8=Merkt ihr noch was ?
TTITLE9=Meiner ist Digga
TTITLE10=Wochenende
TTITLE11=Labara`s kleiner Bruder
TTITLE12=Wenn du das nur wüsstest
TTITLE13=Dumm gelaufen
TTITLE14=Mitten in der Nacht
TTITLE15=Fünf Uhr in der früh
TTITLE16=Wie ein Blatt im Winde
TTITLE17=Alles was ich will
TTITLE18=Carlitanita
TTITLE19=Strategische Kriegsspiele
TTITLE20=Rapkillerschwadron
TTITLE21=Clepta da Clown
TTITLE22=Labara and Brazo
TTITLE23=Schnacker
EXTD=
EXTT0=
EXTT1=
EXTT2=
EXTT3=
EXTT4=
EXTT5=
EXTT6=
EXTT7=
EXTT8=
EXTT9=
EXTT10=
EXTT11=
EXTT12=
EXTT13=
EXTT14=
EXTT15=
EXTT16=
EXTT17=
EXTT18=
EXTT19=
EXTT20=
EXTT21=
EXTT22=
EXTT23=
PLAYORDER=
